<svg width="24" height="24" viewBox="0 0 24 24" fill="none" xmlns="http://www.w3.org/2000/svg">
<path fill-rule="evenodd" clip-rule="evenodd" d="M3.48032 20.0182C2.53265 19.4573 1.81762 19.0341 1.28382 18.4433C0.813837 17.9233 0.460142 17.3181 0.244181 16.6645C-0.00110374 15.9221 -0.000584307 15.1228 0.000104077 14.0634L8.73875e-05 9.43279C-0.00074786 8.25976 -0.00137758 7.37544 0.291666 6.56973C0.299663 6.54774 0.307817 6.52581 0.316126 6.50395L6.01928 9.50873L7.31431 7.29807L1.83219 4.40974C2.41851 3.94488 3.15874 3.59448 4.09313 3.15216L8.68842 0.973215C9.59469 0.542877 10.2789 0.217979 11.0166 0.0867327C11.6665 -0.0289109 12.3335 -0.0289109 12.9834 0.0867326C13.7211 0.217979 14.4053 0.542878 15.3116 0.973216L19.9069 3.15216C20.8413 3.59449 21.5815 3.9449 22.1679 4.40977L16.6858 7.29807L17.9808 9.50873L23.6839 6.50399C23.6922 6.52584 23.7003 6.54775 23.7083 6.56973C24.0014 7.37543 24.0007 8.25975 23.9999 9.43276L23.9999 14.0634C24.0006 15.1228 24.0011 15.9221 23.7558 16.6645C23.5399 17.3181 23.1862 17.9233 22.7162 18.4433C22.1824 19.034 21.4674 19.4573 20.5197 20.0182L15.9243 22.742C14.9257 23.3348 14.1588 23.79 13.3334 24V19.1512H10.6667V24C9.84123 23.7901 9.07435 23.3348 8.07573 22.742L3.48032 20.0182ZM11.3676 8.20342L10.473 10.7485L7.78927 11.5969V12.7965L10.473 13.6449L11.3676 16.19H12.6325L13.5271 13.6449L16.2108 12.7965V11.5969L13.5271 10.7485L12.6325 8.20342H11.3676Z" fill="#6A758C"/>
</svg>
