<svg width="26" height="26" viewBox="0 0 26 26" fill="none" xmlns="http://www.w3.org/2000/svg">
<path d="M10.5664 22.3154C11.3345 22.3154 11.9149 22.9968 11.915 23.7822C11.915 24.5678 11.3346 25.25 10.5664 25.25C9.79846 25.2498 9.21875 24.5676 9.21875 23.7822C9.21889 22.9969 9.79855 22.3157 10.5664 22.3154ZM17.1553 22.3154C17.9232 22.3156 18.5028 22.9969 18.5029 23.7822C18.5029 24.5677 17.9233 25.2498 17.1553 25.25C16.3871 25.25 15.8066 24.5678 15.8066 23.7822C15.8068 22.9968 16.3872 22.3154 17.1553 22.3154ZM1.52637 0.785156C2.10477 0.625042 2.65415 1.02154 2.78516 1.60254L3.69141 5.62012H20.0303C20.9954 5.62009 21.8159 5.61999 22.4668 5.70801C23.1484 5.80022 23.8129 6.00696 24.3457 6.56445C24.5668 6.79582 24.7548 7.06203 24.9053 7.35254C25.2647 8.04681 25.2917 8.79533 25.2148 9.54102C25.141 10.2575 24.951 11.1371 24.7256 12.1797L24.6484 12.5322C24.342 13.9487 24.0852 15.1202 23.8086 16.0801C23.4323 17.3859 22.9864 18.4261 22.2188 19.2617C21.897 19.6119 21.5414 19.9235 21.1582 20.1895C20.337 20.7595 19.4305 21.0109 18.3604 21.1309C17.3213 21.2474 16.0367 21.2471 14.4307 21.2471H13.8115C11.955 21.2471 10.4695 21.2482 9.27832 21.0947C8.04874 20.9363 7.02062 20.6021 6.12305 19.8535C6.04694 19.79 5.97181 19.7245 5.89844 19.6572C5.0358 18.8666 4.50842 17.8431 4.08594 16.5635C3.67535 15.3199 3.33046 13.724 2.89746 11.7207L1.87598 6.99707V6.99609L0.779297 2.13281C0.649835 1.55793 0.960034 0.942159 1.52637 0.785156ZM4.89648 11.1572C5.34587 13.2363 5.66481 14.7036 6.03027 15.8105C6.38742 16.8922 6.75318 17.511 7.2334 17.9512C7.28263 17.9963 7.33279 18.0405 7.38379 18.083C7.87876 18.4958 8.50012 18.7431 9.52344 18.875C10.5747 19.0104 11.9315 19.0127 13.8613 19.0127H14.3877C16.057 19.0127 17.2304 19.011 18.1475 18.9082C19.0424 18.8078 19.5946 18.6189 20.043 18.3076C20.2993 18.1297 20.5383 17.9213 20.7549 17.6855C20.9579 17.4645 21.1366 17.2028 21.3047 16.8643H18.4727C17.8788 16.8643 17.4404 16.3393 17.4404 15.7471C17.4404 15.1548 17.8788 14.6299 18.4727 14.6299H22.0459C22.1395 14.256 22.2355 13.8466 22.3369 13.3945H15.3428C14.7493 13.3942 14.3106 12.8694 14.3105 12.2773C14.3105 11.6853 14.7492 11.1604 15.3428 11.1602H22.8232C22.9981 10.3416 23.1153 9.7562 23.1631 9.29297C23.2195 8.74598 23.1577 8.54908 23.1045 8.44629C23.0516 8.34408 22.9861 8.25132 22.9102 8.17188C22.84 8.09848 22.6944 7.99124 22.2109 7.92578C21.7073 7.85764 21.0222 7.85547 19.9795 7.85547H4.18262L4.89648 11.1572Z" fill="#DC7AF5" stroke="#DC7AF5" stroke-width="0.5"/>
</svg>
