<svg width="24" height="24" viewBox="0 0 24 24" fill="none" xmlns="http://www.w3.org/2000/svg">
<path fill-rule="evenodd" clip-rule="evenodd" d="M12.4917 2.55509C12.1667 2.49766 11.8333 2.49766 11.5083 2.55509C11.1845 2.61232 10.8527 2.75589 9.73415 3.28275L5.46755 5.29236C4.09687 5.93797 3.70377 6.14144 3.42835 6.40635C3.15177 6.67236 2.94143 6.99296 2.81255 7.34496C2.6842 7.69549 2.66681 8.1177 2.66681 9.56131V13.7979C2.66681 15.0988 2.68124 15.4787 2.78881 15.8021C2.89679 16.1267 3.07363 16.4273 3.30862 16.6856C3.54271 16.9429 3.87707 17.1558 5.04811 17.8452L9.31471 20.3573C10.6282 21.1306 11.0218 21.3426 11.4091 21.4255C11.7981 21.5088 12.2019 21.5088 12.5909 21.4255C12.9782 21.3426 13.3718 21.1306 14.6853 20.3573L18.9519 17.8452C20.1229 17.1558 20.4573 16.9429 20.6914 16.6856C20.9264 16.4273 21.1032 16.1267 21.2112 15.8021C21.3188 15.4787 21.3332 15.0988 21.3332 13.7979V9.56131C21.3332 8.1177 21.3158 7.69549 21.1875 7.34496C21.0586 6.99296 20.8482 6.67236 20.5717 6.40635C20.2962 6.14144 19.9031 5.93797 18.5325 5.29236L14.2658 3.28275C13.1473 2.75589 12.8155 2.61232 12.4917 2.55509ZM11.0166 0.0861535C11.6665 -0.0287178 12.3335 -0.0287178 12.9834 0.0861535C13.7211 0.216524 14.4053 0.539254 15.3116 0.966719C15.3599 0.989498 15.4088 1.01257 15.4584 1.03593L19.725 3.04555C19.7864 3.07448 19.847 3.10298 19.9069 3.13111C21.0136 3.6515 21.8479 4.04381 22.4767 4.64864C23.0299 5.18066 23.4506 5.82187 23.7083 6.52586C24.0014 7.32619 24.0007 8.20461 23.9999 9.3698C23.9999 9.43279 23.9998 9.49662 23.9998 9.56131V13.7979C23.9998 13.8558 23.9999 13.913 23.9999 13.9695C24.0006 15.0218 24.0011 15.8158 23.7558 16.5532C23.5399 17.2024 23.1862 17.8036 22.7162 18.3202C22.1824 18.907 21.4674 19.3274 20.5197 19.8846C20.4689 19.9144 20.4174 19.9447 20.3652 19.9754L16.0986 22.4874C16.0397 22.5221 15.9816 22.5564 15.9243 22.5902C14.8649 23.2149 14.0663 23.6858 13.1818 23.8751C12.4038 24.0416 11.5962 24.0416 10.8182 23.8751C9.93375 23.6858 9.13514 23.2149 8.07571 22.5902C8.01839 22.5564 7.96031 22.5221 7.9014 22.4874L3.6348 19.9754C3.58263 19.9447 3.53114 19.9144 3.48031 19.8846C2.53265 19.3274 1.81762 18.907 1.28382 18.3202C0.813837 17.8036 0.460142 17.2024 0.244181 16.5532C-0.00110389 15.8158 -0.000584307 15.0218 0.000104077 13.9695C0.000140951 13.913 0.000178303 13.8558 0.000178303 13.7979V9.56131C0.000178303 9.49662 0.000132527 9.4328 8.73876e-05 9.36981C-0.00074786 8.20461 -0.00137761 7.32619 0.291666 6.52586C0.549434 5.82187 0.970112 5.18066 1.52326 4.64864C2.1521 4.04381 2.98642 3.6515 4.09313 3.13111C4.15295 3.10298 4.21357 3.07448 4.275 3.04555L8.5416 1.03593C8.5912 1.01257 8.64012 0.989496 8.68842 0.966717C9.59469 0.539253 10.2789 0.216523 11.0166 0.0861535Z" fill="currentColor"/>
<path fill-rule="evenodd" clip-rule="evenodd" d="M1.92977 4.71188L7.26302 7.22389L6.07047 9.47071L0.737216 6.95869L1.92977 4.71188ZM16.737 7.22389L22.0702 4.71188L23.2628 6.95869L17.9295 9.47071L16.737 7.22389ZM10.6667 22.1634V18.3954H13.3333V22.1634H10.6667Z" fill="currentColor"/>
<path fill-rule="evenodd" clip-rule="evenodd" d="M10.3676 10.5775L11.2411 8.10899H12.7589L13.6324 10.5775L16.2529 11.4004V12.8303L13.6324 13.6531L12.7589 16.1217H11.2411L10.3676 13.6531L7.74708 12.8303V11.4004L10.3676 10.5775Z" fill="currentColor"/>
</svg>
