<svg width="210" height="210" viewBox="0 0 210 210" fill="none" xmlns="http://www.w3.org/2000/svg">
<path d="M88.9383 204.182C75.65 204.182 65.1758 192.867 66.201 179.618L70.6365 122.301C63.9952 121.197 58.1743 119.937 53.5262 118.805C44.3213 116.561 39.5397 106.892 43.2772 98.2137C49.8713 82.9041 64.3248 53.1382 91.285 13.578C97.7439 4.10056 111.669 4.1153 118.108 13.6063C144.984 53.2238 159.374 83.0209 165.935 98.3446C169.654 107.031 164.852 116.689 155.642 118.913C150.886 120.061 144.901 121.341 138.067 122.448L142.82 179.483C143.928 192.779 133.435 204.182 120.094 204.182L88.9383 204.182Z" fill="#4CDBCB"/>
</svg>
