<svg width="24" height="24" viewBox="0 0 24 24" fill="none" xmlns="http://www.w3.org/2000/svg">
<path fill-rule="evenodd" clip-rule="evenodd" d="M7.67827 5.71429H16.3217C17.395 5.71427 18.2808 5.71426 19.0024 5.76479C19.7519 5.81728 20.4408 5.92992 21.088 6.21254C22.0915 6.65082 22.9074 7.35016 23.4187 8.21033C23.7484 8.765 23.8798 9.35552 23.9411 9.99791C24 10.6164 24 11.3757 24 12.2956V17.4187C24 18.3386 24 19.0979 23.9411 19.7164C23.8798 20.3588 23.7484 20.9493 23.4187 21.504C22.9074 22.3641 22.0915 23.0635 21.088 23.5017C20.4408 23.7844 19.7519 23.897 19.0024 23.9495C18.2808 24 17.395 24 16.3217 24H7.6783C6.60499 24 5.71917 24 4.99757 23.9495C4.2481 23.897 3.55917 23.7844 2.91205 23.5017C1.90852 23.0635 1.09262 22.3641 0.5813 21.504C0.251579 20.9493 0.12016 20.3588 0.058926 19.7164C-3.04182e-05 19.0979 -1.64321e-05 18.3386 5.75055e-07 17.4186V12.2957C-1.64321e-05 11.3757 -3.04182e-05 10.6164 0.058926 9.99791C0.12016 9.35552 0.251579 8.765 0.5813 8.21033C1.09262 7.35016 1.90852 6.65082 2.91205 6.21254C3.55917 5.92992 4.2481 5.81728 4.99757 5.76479C5.71916 5.71426 6.60498 5.71427 7.67827 5.71429ZM5.21472 8.04292C4.63016 8.08385 4.33123 8.15805 4.12269 8.24913C3.62093 8.46827 3.21298 8.81794 2.95732 9.24802C2.85106 9.42676 2.7645 9.683 2.71674 10.184C2.6677 10.6984 2.66667 11.3639 2.66667 12.3429V17.3714C2.66667 18.3504 2.6677 19.0159 2.71674 19.5302C2.7645 20.0313 2.85106 20.2875 2.95732 20.4663C3.21298 20.8964 3.62093 21.246 4.12269 21.4652C4.33123 21.5562 4.63016 21.6304 5.21472 21.6714C5.81484 21.7134 6.59123 21.7143 7.73334 21.7143H16.2667C17.4088 21.7143 18.1852 21.7134 18.7853 21.6714C19.3698 21.6304 19.6688 21.5562 19.8773 21.4652C20.3791 21.246 20.787 20.8964 21.0427 20.4663C21.1489 20.2875 21.2355 20.0313 21.2833 19.5302C21.3323 19.0159 21.3333 18.3504 21.3333 17.3714V12.3429C21.3333 11.3639 21.3323 10.6984 21.2833 10.184C21.2355 9.683 21.1489 9.42676 21.0427 9.24802C20.787 8.81794 20.3791 8.46827 19.8773 8.24913C19.6688 8.15805 19.3698 8.08385 18.7853 8.04292C18.1852 8.00089 17.4088 8 16.2667 8H7.73334C6.59123 8 5.81484 8.00089 5.21472 8.04292Z" fill="#6A758C"/>
<path fill-rule="evenodd" clip-rule="evenodd" d="M9.33338 2.77714L9.33333 3.42864L6.66667 3.4285L6.66678 1.8263L7.03768 1.49474C7.36104 1.20569 7.84338 0.78532 8.68653 0.471759C9.50195 0.168505 10.5535 0 12.0001 0C13.4466 0 14.4982 0.168518 15.3136 0.47178C16.1567 0.785347 16.6391 1.20572 16.9624 1.49471L17.3333 1.82631V3.42857H14.6667V2.77713C14.5487 2.69819 14.4193 2.63077 14.2522 2.56862C13.879 2.42984 13.2201 2.28571 12.0001 2.28571C10.78 2.28571 10.1211 2.42984 9.74793 2.56861C9.58082 2.63076 9.45141 2.6982 9.33338 2.77714Z" fill="#6A758C"/>
<path fill-rule="evenodd" clip-rule="evenodd" d="M12.0007 19.4286C10.4129 19.4293 8.79117 19.08 7.2 18.0571L8.8 16.2286C9.8755 16.92 10.9181 17.1434 11.9993 17.1429C13.0805 17.1424 14.1254 16.9194 15.2 16.2286L16.8 18.0571C15.208 19.0806 13.5839 19.4278 12.0007 19.4286Z" fill="#6A758C"/>
<path d="M5.33333 13.1429C5.33333 12.1961 6.22877 11.4286 7.33333 11.4286C8.4379 11.4286 9.33333 12.1961 9.33333 13.1429C9.33333 14.0896 8.4379 14.8571 7.33333 14.8571C6.22877 14.8571 5.33333 14.0896 5.33333 13.1429Z" fill="#6A758C"/>
<path d="M14.6667 13.1429C14.6667 12.1961 15.5621 11.4286 16.6667 11.4286C17.7712 11.4286 18.6667 12.1961 18.6667 13.1429C18.6667 14.0896 17.7712 14.8571 16.6667 14.8571C15.5621 14.8571 14.6667 14.0896 14.6667 13.1429Z" fill="#6A758C"/>
</svg>
